<svg xmlns="http://www.w3.org/2000/svg" xmlns:xlink="http://www.w3.org/1999/xlink">
    <symbol viewBox="0 0 45 45" id="hot">
    <path d="M30.921,41.193l0.82,1.824c-2.817,1.27-5.947,1.978-9.241,1.978C10.075,44.995,0,34.923,0,22.498,C0,10.071,10.075,0,22.5,0c12.429,0,22.504,10.071,22.504,22.498c0,5.336-1.859,10.238-4.964,14.096l-1.557-1.252,c2.957-3.677,4.52-8.115,4.52-12.844c0-11.304-9.196-20.496-20.503-20.496C11.197,2.001,2,11.194,2,22.498,c0,11.303,9.197,20.5,20.5,20.5C25.437,42.998,28.268,42.389,30.921,41.193"></path><path d="M17.043,31.084h-1.435v-6.71H9.983v6.71H8.548V16.193h1.435v6.47h5.625v-6.47h1.435V31.084z"></path><path d="M19.196,23.817c0-2.403,0.486-4.316,1.457-5.739c0.971-1.423,2.287-2.134,3.947-2.134,c1.545,0,2.789,0.696,3.73,2.086c0.942,1.391,1.414,3.201,1.414,5.431c0,2.417-0.483,4.333-1.449,5.75,c-0.967,1.416-2.258,2.124-3.875,2.124c-1.579,0-2.844-0.695-3.795-2.086C19.672,27.858,19.196,26.046,19.196,23.817zM20.703,23.663c0,1.801,0.343,3.245,1.03,4.331s1.582,1.629,2.687,1.629c1.187,0,2.117-0.52,2.795-1.562,c0.677-1.042,1.016-2.497,1.016-4.369c0-1.923-0.332-3.406-0.994-4.451c-0.662-1.044-1.57-1.567-2.723-1.567,c-1.134,0-2.053,0.551-2.756,1.654C21.054,20.43,20.703,21.875,20.703,23.663z"></path><path d="M37.894,17.905h-3.207v13.18h-1.441v-13.18h-3.193v-1.711h7.842V17.905z"></path>
    </symbol>
    <symbol viewBox="0 0 45 47" id="wond">
    <line fill="none" stroke-width="2" stroke-miterlimit="10" x1="5.801" y1="1.04" x2="9.767" y2="5.279"/><line fill="none" stroke-width="2" stroke-miterlimit="10" x1="0" y1="16.902" x2="4.708" y2="16.902"/><line fill="none" stroke-width="2" stroke-miterlimit="10" x1="7.168" y1="33.447" x2="9.767" y2="29.766"/><line fill="none" stroke-width="2" stroke-miterlimit="10" x1="38.344" y1="1.04" x2="34.926" y2="4.736"/><line fill="none" stroke-width="2" stroke-miterlimit="10" x1="40.122" y1="16.902" x2="45.045" y2="16.902"/><line fill="none" stroke-width="2" stroke-miterlimit="10" x1="34.926" y1="29.766" x2="38.344" y2="33.447"/><line fill="none" stroke-width="1.5" stroke-miterlimit="10" x1="14.506" y1="40.053" x2="29" y2="40.053"/><line fill="none" stroke-width="1.5" stroke-miterlimit="10" x1="14.506" y1="43.241" x2="29" y2="43.241"/><line fill="none" stroke-width="1.5" stroke-miterlimit="10" x1="17.241" y1="46.25" x2="26.266" y2="46.25"/><polyline fill="none" stroke-width="2" stroke-miterlimit="10" points="14.506,28.934 14.506,36.455 29,36.455 29,28.934 "/><path fill="none" stroke-width="2" stroke-miterlimit="10" d="M17.604,2.878 c-5.452,2.052-9.331,7.315-9.331,13.484c0,5.255,2.029,9.49,6.233,12.005v2.5"/><path fill="none" stroke-width="2" stroke-miterlimit="10" d="M25.579,2.252c6.563,1.343,11.5,7.15,11.5,14.11 c0,5.465-3.592,10.397-8.078,12.838v1.79"/>
    </symbol>
    <symbol viewBox="0 0 45 42" id="digg">
    <polyline fill="none" stroke-width="2" stroke-miterlimit="10" points="1,20.092 1,17.221 9.341,17.221 9.341,37.732 1,37.732 1,29.05 "/><polyline fill="none" stroke-width="2" stroke-miterlimit="10" points="9.341,19.409 18.229,19.409 25.34,1.359 30.809,1.359 30.809,15.443 43.116,15.443 43.116,36.091 38.193,40.33 23.699,40.33 19.187,36.774 9.341,36.774 "/>
    </symbol>
    <symbol viewBox="0 0 53 38" id="new">
    <path d="M8.772,2.001V0c12.748,0,41.44,0,41.44,0c1.541,0,2.789,1.245,2.789,2.783v32.437 c0,1.537-1.248,2.783-2.789,2.783H2.789C1.248,38.002,0,36.756,0,35.219c0,0,0-17.048,0-26.425h2.001v26.425 C2.001,35.651,2.355,36,2.789,36h47.423C50.646,36,51,35.651,51,35.219V2.783c0-0.431-0.354-0.782-0.787-0.782H8.772"/><path d="M20.123,27.766h-1.701l-5.589-11.584c-0.158-0.327-0.285-0.65-0.38-0.971h-0.043 c0.038,0.333,0.057,1.029,0.057,2.086v10.469h-1.42V12.875h1.801l5.439,11.382c0.258,0.539,0.411,0.882,0.459,1.029h0.029 c-0.048-0.424-0.072-1.147-0.072-2.173V12.875h1.421V27.766z"/><path d="M28.968,27.766h-5.976V12.875h5.724v1.711h-4.289v4.768h3.975v1.701h-3.975v5.009h4.541V27.766z"/><path d="M44.625,12.875l-3.113,14.892h-1.672l-2.24-10.729c-0.1-0.487-0.16-1-0.178-1.538h-0.029 c-0.029,0.532-0.096,1.038-0.201,1.519l-2.26,10.748h-1.658l-3.221-14.892h1.586l2.268,11.247c0.1,0.507,0.16,1.017,0.178,1.529 h0.043c0.025-0.385,0.104-0.895,0.238-1.529l2.402-11.247h1.414l2.297,11.334c0.076,0.372,0.139,0.847,0.186,1.423h0.029 c0.023-0.416,0.094-0.903,0.207-1.461l2.182-11.296H44.625z"/>
    </symbol>
    <symbol viewBox="0 0 43 38" id="week">
    <path d="M15.096,6.195l1.029-1.714l1.329,1.492l-1.329-1.492L15.096,6.195z M15.096,6.195l1.029-1.714l13.437,8.061 L41.208,0l1.463,1.361L31.029,13.902l-1.104,1.19l-1.391-0.836L15.096,6.195 M1.328,20.307L0,18.815L16.125,4.481l1.329,1.492 L1.328,20.307"/><path d="M43,0h-1H43z M43,1V0V1z M42,0h1v7.167h-1V0 M34.937,1V0H43v1H34.937"/><line fill="none" stroke-width="1.5" stroke-miterlimit="10" x1="5.779" y1="25.607" x2="5.779" y2="38.519"/><line fill="none" stroke-width="1.5" stroke-miterlimit="10" x1="28.667" y1="20.307" x2="28.667" y2="38.519"/><line fill="none" stroke-width="1.5" stroke-miterlimit="10" x1="40.001" y1="12.742" x2="40.001" y2="38.519"/><line fill="none" stroke-width="1.5" stroke-miterlimit="10" x1="18.224" y1="16.366" x2="18.224" y2="38.519"/>
    </symbol>
    <symbol viewBox="0 0 47 50" id="cup">
    <path fill="none" stroke-width="2" stroke-miterlimit="10" d="M11.444,4.333L8.111,8.675v14.287 c0,0,5.449,12.004,15.842,13.291c0,0,12.598-3.609,13.936-13.33V8.675L33.223,1h-14"/><path fill="none" stroke-width="2" stroke-miterlimit="10" d="M8.111,11.667H1c0,0,0.223,12.066,7.111,11.255"/><path fill="none" stroke-width="2" stroke-miterlimit="10" d="M37.889,11.667h7.777l-1.111,7.164 c0,0-0.621,3.504-7.199,5.836"/><line fill="none" stroke-width="2" stroke-miterlimit="10" x1="23.954" y1="36.252" x2="23.954" y2="48.778"/><line fill="none" stroke-width="2" stroke-miterlimit="10" x1="15.889" y1="48.778" x2="30.334" y2="48.778"/>
    </symbol>
    <symbol viewBox="0 0 42 28" id="eye">
    <path d="M0.114,14.249l1.879-0.685L0.114,14.249l1.924-0.537L0.114,14.249z M41.999,14.249l-1.918-0.569 L41.999,14.249z M40.143,14.991l1.855-0.743L40.143,14.991z M2.038,13.711l-1.943,0.47c-0.138-0.576-0.858-4.68,5.481-9.039 L6.709,6.79C1.333,10.485,2.009,13.583,2.038,13.711 M40.081,13.679l1.914,0.576c-0.111,0.366-3.846,12.168-19.119,13.652 c-7.337,0.713-18.982-3.281-22.761-13.659l1.879-0.685c3.448,9.463,14.385,12.963,20.689,12.352 C36.588,24.564,39.95,14.114,40.081,13.679 M10.009,4.248L9.208,2.415c0.206-0.087,11.355-4.841,21.197-0.769 c4.543,1.882,8.809,5.639,11.594,12.603l-1.855,0.743c-2.275-5.687-5.807-9.553-10.5-11.496c-9.006-3.725-19.528,0.708-19.625,0.746 L10.009,4.248"/><path d="M21.055,21.531c-4.021,0-7.283-3.262-7.283-7.283c0-4.024,3.262-7.286,7.283-7.286 c4.023,0,7.285,3.262,7.285,7.286C28.34,18.27,25.079,21.531,21.055,21.531z M21.055,19.534c2.914,0,5.285-2.371,5.285-5.286 c0-2.914-2.371-5.285-5.285-5.285c-2.915,0-5.286,2.371-5.286,5.285C15.77,17.163,18.141,19.534,21.055,19.534"/>
    </symbol>
    <symbol viewBox="0 0 22 28" id="first">
    <polygon points="18.017,27.646 4.308,27.646 4.308,25.457 7.728,25.457 7.728,2.531 4.848,2.531 4.848,0.341 14.538,0.341 14.538,25.457 18.017,25.457 "/>
    </symbol>
    <symbol viewBox="0 0 22 28" id="second">
    <path d="M0,0.326h21.45v9.182c0,3.211-2.22,5.461-5.49,5.461H6.87v10.502h14.58v2.19H0V12.778h11.581c1.439,0,3-1.26,3-3.271V2.546	H0V0.326z"/>
    </symbol>
    <symbol viewBox="0 0 22 28" id="third">
    <path d="M22.025,12.374v9.812c0,3-2.459,5.49-5.49,5.49H0.005v-2.189h12.48c1.5,0,2.729-1.23,2.729-2.73v-8.163h-15.24v-2.22h11.431 c2.489,0,3.81-2.19,3.81-3.812V2.501h-15.24v-2.19h22.05v7.682c0,1.8-0.689,3.271-1.709,4.381H22.025z"/>
    </symbol>
    <symbol viewBox="0 0 128 154" id="firstbg">
    <path d="M102.022,4.11l-28.42,148.263l-30.212,0.115L65.276,38.318c-4.342,3.262-9.984,6.2-16.923,8.815 c-6.943,2.617-13.17,4.247-18.681,4.891l4.973-25.943c17.938-5.059,34.014-12.358,48.229-21.897L102.022,4.11z"/>
    </symbol>
    <symbol viewBox="0 0 128 154" id="secondbg">
    <path d="M44.04,127.11l59.669,0.236l-6.477,25.744l-93.544-0.371l2.769-11.006 c1.942-7.719,5.063-14.764,9.363-21.133c4.298-6.369,9.504-12.305,15.615-17.805c6.111-5.498,15.061-11.93,26.854-19.293 c10.879-7.108,18.831-13.416,23.852-18.92c5.021-5.504,8.311-11.351,9.867-17.54c3.355-13.334-1.87-20.029-15.675-20.084 c-12.11-0.048-24.958,5.012-38.544,15.175l6.934-27.562C59.116,6.244,73.972,2.119,89.291,2.18 c14.046,0.055,24.206,3.879,30.478,11.473c6.271,7.592,7.738,18.025,4.399,31.294c-1.862,7.402-4.724,14.079-8.586,20.035 c-3.862,5.957-8.692,11.542-14.488,16.755c-5.798,5.215-14.554,11.471-26.269,18.768c-11.303,7.109-19.08,12.604-23.328,16.48 C47.248,120.864,44.763,124.239,44.04,127.11z"/>
    </symbol>
    <symbol viewBox="0 0 128 154" id="thirdbg">
    <path d="M15.391,120.41c7.842,6.943,18.11,10.115,30.805,9.516c8.034-0.381,14.827-2.529,20.381-6.449 c5.553-3.92,9.098-9.289,10.633-16.109c1.578-7.008-0.023-12.229-4.805-15.66c-4.779-3.432-12.228-4.908-22.348-4.43l-12.693,0.6 l5.355-23.803l11.683-0.552c19.134-0.904,30.207-8.049,33.218-21.432c2.84-12.618-3.072-18.581-17.729-17.888 c-9.566,0.452-19.588,4.141-30.066,11.067l5.742-25.523c11.001-5.753,23.158-8.944,36.466-9.573 c13.492-0.638,23.709,2.08,30.658,8.151c6.945,6.072,9.127,14.843,6.547,26.314c-4.359,19.374-16.543,31.993-36.549,37.855 l-0.107,0.479c9.676,0.677,16.768,4.078,21.275,10.202c4.508,6.123,5.73,13.773,3.666,22.951 c-3.17,14.086-10.596,25.313-22.277,33.682c-11.684,8.371-25.773,12.945-42.27,13.725c-14.657,0.693-25.896-1.268-33.716-5.877 L15.391,120.41z"/>
    </symbol>
</svg>